<svg width="40" height="40" viewBox="0 0 40 40" fill="none" xmlns="http://www.w3.org/2000/svg">
<g opacity="0.4">
<path d="M18.7493 26.5832V13.4165C18.7493 12.1665 18.216 11.6665 16.891 11.6665H13.5243C12.1993 11.6665 11.666 12.1665 11.666 13.4165V26.5832C11.666 27.8332 12.1993 28.3332 13.5243 28.3332H16.891C18.216 28.3332 18.7493 27.8332 18.7493 26.5832Z" stroke="#100A55" stroke-width="2" stroke-linecap="round" stroke-linejoin="round"/>
<path d="M28.3333 17.0998V13.3165C28.3333 12.1415 27.8 11.6665 26.475 11.6665H23.1083C21.7833 11.6665 21.25 12.1415 21.25 13.3165V17.0915C21.25 18.2748 21.7833 18.7415 23.1083 18.7415H26.475C27.8 18.7498 28.3333 18.2748 28.3333 17.0998Z" stroke="#100A55" stroke-width="2" stroke-linecap="round" stroke-linejoin="round"/>
<path d="M28.3333 26.475V23.1083C28.3333 21.7833 27.8 21.25 26.475 21.25H23.1083C21.7833 21.25 21.25 21.7833 21.25 23.1083V26.475C21.25 27.8 21.7833 28.3333 23.1083 28.3333H26.475C27.8 28.3333 28.3333 27.8 28.3333 26.475Z" stroke="#100A55" stroke-width="2" stroke-linecap="round" stroke-linejoin="round"/>
</g>
</svg>
