<svg width="40" height="40" viewBox="0 0 40 40" fill="none" xmlns="http://www.w3.org/2000/svg">
<g opacity="0.5" clip-path="url(#clip0_323_14486)">
<path d="M18 13H14C13.4477 13 13 13.4477 13 14V18C13 18.5523 13.4477 19 14 19H18C18.5523 19 19 18.5523 19 18V14C19 13.4477 18.5523 13 18 13Z" fill="#100A55"/>
<path d="M26 13H22C21.4477 13 21 13.4477 21 14V18C21 18.5523 21.4477 19 22 19H26C26.5523 19 27 18.5523 27 18V14C27 13.4477 26.5523 13 26 13Z" fill="#100A55"/>
<path d="M18 21H14C13.4477 21 13 21.4477 13 22V26C13 26.5523 13.4477 27 14 27H18C18.5523 27 19 26.5523 19 26V22C19 21.4477 18.5523 21 18 21Z" fill="#100A55"/>
<path d="M26 21H22C21.4477 21 21 21.4477 21 22V26C21 26.5523 21.4477 27 22 27H26C26.5523 27 27 26.5523 27 26V22C27 21.4477 26.5523 21 26 21Z" fill="#100A55"/>
</g>
<defs>
<clipPath id="clip0_323_14486">
<rect width="24" height="24" fill="white" transform="translate(8 8)"/>
</clipPath>
</defs>
</svg>
