<svg width="24" height="24" viewBox="0 0 24 24" fill="none" xmlns="http://www.w3.org/2000/svg">
<g clip-path="url(#clip0_142_2831)">
<path d="M20.7125 7.88178L14.0463 2.70156C13.4612 2.24687 12.7412 2 12 2C11.2588 2 10.5388 2.24687 9.95375 2.70156L3.28625 7.88178C2.88555 8.1931 2.56137 8.59179 2.33844 9.04739C2.11552 9.503 1.99976 10.0035 2 10.5106V19.5023C2 20.1647 2.26339 20.8 2.73223 21.2684C3.20107 21.7369 3.83696 22 4.5 22H19.5C20.163 22 20.7989 21.7369 21.2678 21.2684C21.7366 20.8 22 20.1647 22 19.5023V10.5106C22 9.4828 21.525 8.51245 20.7125 7.88178Z" stroke="#7065F0" stroke-width="2" stroke-linecap="round" stroke-linejoin="round"/>
<path d="M9.5 14.7502C9.5 15.7202 10.25 16.5002 11.17 16.5002H13.05C13.85 16.5002 14.5 15.8202 14.5 14.9702C14.5 14.0602 14.1 13.7302 13.51 13.5202L10.5 12.4702C9.91 12.2602 9.51001 11.9402 9.51001 11.0202C9.51001 10.1802 10.16 9.49023 10.96 9.49023H12.84C13.76 9.49023 14.51 10.2702 14.51 11.2402" stroke="#7065F0" stroke-width="2" stroke-linecap="round" stroke-linejoin="round"/>
<path d="M12 8.5V17.5" stroke="#7065F0" stroke-width="2" stroke-linecap="round" stroke-linejoin="round"/>
</g>
<defs>
<clipPath id="clip0_142_2831">
<rect width="24" height="24" fill="white"/>
</clipPath>
</defs>
</svg>
