<svg width="48" height="48" viewBox="0 0 48 48" fill="none" xmlns="http://www.w3.org/2000/svg">
<rect width="48" height="48" rx="8" fill="#7065F0"/>
<g clip-path="url(#clip0_29235_1707)">
<path d="M33.333 19.6132L26.2224 14.0825C25.5984 13.5971 24.8303 13.3335 24.0397 13.3335C23.2491 13.3335 22.4811 13.5971 21.857 14.0825L14.745 19.6132C14.3176 19.9456 13.9718 20.3712 13.7341 20.8577C13.4963 21.3441 13.3728 21.8784 13.373 22.4199V32.0199C13.373 32.7271 13.654 33.4054 14.1541 33.9055C14.6542 34.4056 15.3325 34.6865 16.0397 34.6865H32.0397C32.747 34.6865 33.4252 34.4056 33.9253 33.9055C34.4254 33.4054 34.7064 32.7271 34.7064 32.0199V22.4199C34.7064 21.3225 34.1997 20.2865 33.333 19.6132Z" fill="white" stroke="white" stroke-width="3" stroke-linecap="round" stroke-linejoin="round"/>
<path d="M29.3327 28C26.386 29.7773 21.61 29.7773 18.666 28" stroke="#7065F0" stroke-width="3" stroke-linecap="round" stroke-linejoin="round"/>
</g>
<defs>
<clipPath id="clip0_29235_1707">
<rect width="32" height="32" fill="white" transform="translate(8 8)"/>
</clipPath>
</defs>
</svg>
