<svg width="48" height="52" viewBox="0 0 48 52" fill="none" xmlns="http://www.w3.org/2000/svg">
<rect width="40" height="48" rx="8" fill="#100A55"/>
<path d="M8 32H26" stroke="#E0DEF7" stroke-width="2" stroke-miterlimit="10" stroke-linecap="round" stroke-linejoin="round"/>
<path d="M8 38H18" stroke="#7065F0" stroke-width="2" stroke-miterlimit="10" stroke-linecap="round" stroke-linejoin="round"/>
<path d="M18.666 18.333C18.3927 18.333 18.166 18.5597 18.166 18.833V19.833C18.166 20.1063 18.3927 20.333 18.666 20.333C18.9393 20.333 19.166 20.1063 19.166 19.833V18.833C19.166 18.5597 18.9393 18.333 18.666 18.333Z" fill="#E0DEF7"/>
<path d="M26.6673 22.1668H26.0007V14.6535C26.0007 14.2401 25.814 13.8535 25.4873 13.6001L20.8207 9.97348C20.3407 9.59348 19.6607 9.59348 19.1807 9.97348L14.514 13.6001C14.1873 13.8535 14.0007 14.2401 14.0007 14.6468L13.9673 22.1668H13.334C13.0607 22.1668 12.834 22.3868 12.834 22.6668C12.834 22.9401 13.0607 23.1668 13.334 23.1668H26.6673C26.9407 23.1668 27.1673 22.9401 27.1673 22.6668C27.1673 22.3868 26.9407 22.1668 26.6673 22.1668ZM19.0007 12.5001H21.0007C21.274 12.5001 21.5007 12.7268 21.5007 13.0001C21.5007 13.2735 21.274 13.5001 21.0007 13.5001H19.0007C18.7273 13.5001 18.5007 13.2735 18.5007 13.0001C18.5007 12.7268 18.7273 12.5001 19.0007 12.5001ZM23.334 22.1668H16.6673V16.3335C16.6673 15.7801 17.114 15.3335 17.6673 15.3335H22.334C22.8873 15.3335 23.334 15.7801 23.334 16.3335V22.1668Z" fill="#E0DEF7"/>
<rect x="32" y="34" width="16" height="18" rx="3" fill="#7065F0"/>
<path d="M43.2456 44.2213C42.3873 45.0755 41.1581 45.338 40.0789 45.0005L38.1164 46.9588C37.9748 47.1046 37.6956 47.1921 37.4956 47.163L36.5873 47.038C36.2873 46.9963 36.0081 46.713 35.9623 46.413L35.8373 45.5046C35.8081 45.3046 35.9039 45.0255 36.0414 44.8838L37.9998 42.9255C37.6664 41.8421 37.9248 40.613 38.7831 39.7588C40.0123 38.5296 42.0081 38.5296 43.2414 39.7588C44.4748 40.988 44.4748 42.9921 43.2456 44.2213Z" stroke="white" stroke-miterlimit="10" stroke-linecap="round" stroke-linejoin="round"/>
<path d="M37.8711 45.2871L38.8294 46.2454" stroke="white" stroke-miterlimit="10" stroke-linecap="round" stroke-linejoin="round"/>
<path d="M41.041 42.583C41.3862 42.583 41.666 42.3032 41.666 41.958C41.666 41.6128 41.3862 41.333 41.041 41.333C40.6958 41.333 40.416 41.6128 40.416 41.958C40.416 42.3032 40.6958 42.583 41.041 42.583Z" stroke="white" stroke-linecap="round" stroke-linejoin="round"/>
</svg>
