<svg width="40" height="40" viewBox="0 0 40 40" fill="none" xmlns="http://www.w3.org/2000/svg">
<g opacity="0.4">
<path d="M20 22.5C21.3807 22.5 22.5 21.3807 22.5 20C22.5 18.6193 21.3807 17.5 20 17.5C18.6193 17.5 17.5 18.6193 17.5 20C17.5 21.3807 18.6193 22.5 20 22.5Z" stroke="#100A55" stroke-width="2" stroke-miterlimit="10" stroke-linecap="round" stroke-linejoin="round"/>
<path d="M11.666 20.7334V19.2667C11.666 18.4 12.3743 17.6834 13.2493 17.6834C14.7577 17.6834 15.3743 16.6167 14.616 15.3084C14.1827 14.5584 14.441 13.5834 15.1993 13.15L16.641 12.325C17.2993 11.9334 18.1493 12.1667 18.541 12.825L18.6327 12.9834C19.3827 14.2917 20.616 14.2917 21.3743 12.9834L21.466 12.825C21.8577 12.1667 22.7077 11.9334 23.366 12.325L24.8077 13.15C25.566 13.5834 25.8243 14.5584 25.391 15.3084C24.6327 16.6167 25.2494 17.6834 26.7577 17.6834C27.6244 17.6834 28.341 18.3917 28.341 19.2667V20.7334C28.341 21.6 27.6327 22.3167 26.7577 22.3167C25.2494 22.3167 24.6327 23.3834 25.391 24.6917C25.8243 25.45 25.566 26.4167 24.8077 26.85L23.366 27.675C22.7077 28.0667 21.8577 27.8334 21.466 27.175L21.3743 27.0167C20.6243 25.7084 19.391 25.7084 18.6327 27.0167L18.541 27.175C18.1493 27.8334 17.2993 28.0667 16.641 27.675L15.1993 26.85C14.441 26.4167 14.1827 25.4417 14.616 24.6917C15.3743 23.3834 14.7577 22.3167 13.2493 22.3167C12.3743 22.3167 11.666 21.6 11.666 20.7334Z" stroke="#100A55" stroke-width="2" stroke-miterlimit="10" stroke-linecap="round" stroke-linejoin="round"/>
</g>
</svg>
